<svg width="360" height="102" viewBox="0 0 360 102" fill="none" xmlns="http://www.w3.org/2000/svg">
<path d="M121.352 0.52H141.152V6.712H140.144L138.992 2.716C138.92 2.404 138.836 2.188 138.74 2.068C138.668 1.924 138.512 1.84 138.272 1.816C138.032 1.792 137.624 1.78 137.048 1.78H133.412V21.976C133.412 22.792 133.448 23.284 133.52 23.452C133.592 23.596 133.82 23.692 134.204 23.74L136.184 23.992V25H126.32V23.992L128.3 23.74C128.684 23.692 128.912 23.596 128.984 23.452C129.056 23.284 129.092 22.792 129.092 21.976V1.78H125.456C124.904 1.78 124.496 1.792 124.232 1.816C123.992 1.84 123.836 1.924 123.764 2.068C123.692 2.188 123.608 2.404 123.512 2.716L122.36 6.712H121.352V0.52ZM159.038 15.496V16.216C159.038 18.976 158.318 21.196 156.878 22.876C155.462 24.532 153.434 25.36 150.794 25.36C148.154 25.36 146.114 24.532 144.674 22.876C143.258 21.196 142.55 18.976 142.55 16.216V15.496C142.55 12.736 143.258 10.528 144.674 8.872C146.114 7.216 148.154 6.388 150.794 6.388C153.434 6.388 155.462 7.216 156.878 8.872C158.318 10.528 159.038 12.736 159.038 15.496ZM154.61 14.776C154.61 12.208 154.286 10.384 153.638 9.304C152.99 8.2 152.042 7.648 150.794 7.648C149.57 7.648 148.622 8.2 147.95 9.304C147.302 10.384 146.978 12.208 146.978 14.776V16.936C146.978 19.48 147.302 21.316 147.95 22.444C148.622 23.548 149.57 24.1 150.794 24.1C152.042 24.1 152.99 23.548 153.638 22.444C154.286 21.316 154.61 19.48 154.61 16.936V14.776ZM161.469 7.756V6.748H168.165V9.736C168.861 8.608 169.617 7.768 170.433 7.216C171.249 6.664 172.221 6.388 173.349 6.388C175.365 6.388 176.961 7.192 178.137 8.8C179.337 10.384 179.937 12.616 179.937 15.496V16.216C179.937 19 179.253 21.22 177.885 22.876C176.517 24.532 174.621 25.36 172.197 25.36C170.757 25.36 169.485 25 168.381 24.28V29.644C168.381 30.46 168.417 30.94 168.489 31.084C168.561 31.252 168.789 31.36 169.173 31.408L171.873 31.66V32.668H161.469V31.66L163.449 31.408C163.833 31.36 164.061 31.252 164.133 31.084C164.205 30.94 164.241 30.46 164.241 29.644V9.772C164.241 8.956 164.205 8.476 164.133 8.332C164.061 8.164 163.833 8.056 163.449 8.008L161.469 7.756ZM172.413 7.972C171.813 7.972 171.177 8.224 170.505 8.728C169.857 9.208 169.149 10.204 168.381 11.716V22.588C169.293 23.5 170.409 23.956 171.729 23.956C173.073 23.956 174.033 23.368 174.609 22.192C175.209 20.992 175.509 19.36 175.509 17.296V14.416C175.509 12.184 175.233 10.552 174.681 9.52C174.129 8.488 173.373 7.972 172.413 7.972ZM197.526 13.084H196.554V11.824H197.526C199.23 11.824 200.43 11.32 201.126 10.312C201.846 9.304 202.206 8.008 202.206 6.424C202.206 3.088 201.114 1.42 198.93 1.42C197.586 1.42 196.638 2.008 196.086 3.184C195.558 4.36 195.414 6.028 195.654 8.188L191.334 7.612C191.118 6.316 191.238 5.104 191.694 3.976C192.174 2.848 193.014 1.936 194.214 1.24C195.438 0.519998 197.022 0.159998 198.966 0.159998C200.862 0.159998 202.386 0.459998 203.538 1.06C204.69 1.636 205.53 2.404 206.058 3.364C206.61 4.3 206.886 5.32 206.886 6.424C206.886 8.104 206.31 9.46 205.158 10.492C204.006 11.5 202.362 12.148 200.226 12.436C202.458 12.724 204.162 13.396 205.338 14.452C206.538 15.508 207.138 16.984 207.138 18.88C207.138 20.776 206.418 22.336 204.978 23.56C203.538 24.76 201.39 25.36 198.534 25.36C196.638 25.36 195.018 24.928 193.674 24.064C192.354 23.176 191.514 21.712 191.154 19.672L193.71 18.988C193.95 20.812 194.454 22.12 195.222 22.912C196.014 23.704 197.01 24.1 198.21 24.1C199.698 24.1 200.778 23.668 201.45 22.804C202.122 21.916 202.458 20.608 202.458 18.88C202.458 17.176 202.086 15.784 201.342 14.704C200.598 13.624 199.326 13.084 197.526 13.084ZM228.754 11.608V13.876C228.754 16.18 228.406 18.196 227.71 19.924C227.038 21.652 226.042 22.996 224.722 23.956C223.402 24.892 221.806 25.36 219.934 25.36C218.062 25.36 216.466 24.892 215.146 23.956C213.826 22.996 212.818 21.652 212.122 19.924C211.45 18.196 211.114 16.18 211.114 13.876V11.608C211.114 9.304 211.45 7.3 212.122 5.596C212.818 3.868 213.826 2.536 215.146 1.6C216.466 0.639998 218.062 0.159998 219.934 0.159998C221.806 0.159998 223.402 0.639998 224.722 1.6C226.042 2.536 227.038 3.868 227.71 5.596C228.406 7.3 228.754 9.304 228.754 11.608ZM223.966 9.088C223.966 6.352 223.618 4.396 222.922 3.22C222.226 2.02 221.23 1.42 219.934 1.42C218.638 1.42 217.642 2.02 216.946 3.22C216.25 4.396 215.902 6.352 215.902 9.088V16.396C215.902 19.156 216.25 21.136 216.946 22.336C217.642 23.512 218.638 24.1 219.934 24.1C221.23 24.1 222.226 23.512 222.922 22.336C223.618 21.136 223.966 19.156 223.966 16.396V9.088ZM25.2929 62.104V63H16.5249V62.104L18.2849 61.88C18.6262 61.8373 18.8289 61.752 18.8929 61.624C18.9569 61.4747 18.9889 61.0373 18.9889 60.312V43.864L13.1329 60.44H9.70888L3.91688 43.96V60.312C3.91688 61.0373 3.94888 61.4747 4.01288 61.624C4.07688 61.752 4.27954 61.8373 4.62088 61.88L6.38088 62.104V63H0.172875V62.104L1.93288 61.88C2.27421 61.8373 2.47688 61.752 2.54088 61.624C2.60488 61.4747 2.63688 61.0373 2.63688 60.312V43.928C2.63688 43.2027 2.60488 42.776 2.54088 42.648C2.47688 42.4987 2.27421 42.4027 1.93288 42.36L0.172875 42.136V41.24H6.92488L12.7809 57.88L18.7329 41.24H25.2929V42.136L23.5329 42.36C23.1915 42.4027 22.9889 42.4987 22.9249 42.648C22.8609 42.776 22.8289 43.2027 22.8289 43.928V60.312C22.8289 61.0373 22.8609 61.4747 22.9249 61.624C22.9889 61.752 23.1915 61.8373 23.5329 61.88L25.2929 62.104ZM42.9919 54.552V55.192C42.9919 57.6453 42.3519 59.6187 41.0719 61.112C39.8132 62.584 38.0105 63.32 35.6639 63.32C33.3172 63.32 31.5039 62.584 30.2239 61.112C28.9652 59.6187 28.3359 57.6453 28.3359 55.192V54.552C28.3359 52.0987 28.9652 50.136 30.2239 48.664C31.5039 47.192 33.3172 46.456 35.6639 46.456C38.0105 46.456 39.8132 47.192 41.0719 48.664C42.3519 50.136 42.9919 52.0987 42.9919 54.552ZM39.0559 53.912C39.0559 51.6293 38.7679 50.008 38.1919 49.048C37.6159 48.0667 36.7732 47.576 35.6639 47.576C34.5759 47.576 33.7332 48.0667 33.1359 49.048C32.5599 50.008 32.2719 51.6293 32.2719 53.912V55.832C32.2719 58.0933 32.5599 59.7253 33.1359 60.728C33.7332 61.7093 34.5759 62.2 35.6639 62.2C36.7732 62.2 37.6159 61.7093 38.1919 60.728C38.7679 59.7253 39.0559 58.0933 39.0559 55.832V53.912ZM52.6726 56.952L50.4646 56.44C49.0353 56.0987 47.9686 55.4907 47.2646 54.616C46.582 53.72 46.2406 52.664 46.2406 51.448C46.2406 50.552 46.4326 49.7307 46.8166 48.984C47.222 48.216 47.8513 47.608 48.7046 47.16C49.558 46.6907 50.6673 46.456 52.0326 46.456C53.5046 46.456 54.6993 46.6907 55.6166 47.16C56.534 47.6293 57.1846 48.248 57.5686 49.016C57.9526 49.784 58.07 50.6053 57.9206 51.48L54.4006 52.12C54.6993 50.6693 54.614 49.5493 54.1446 48.76C53.6966 47.9707 52.9393 47.576 51.8726 47.576C51.126 47.576 50.5073 47.8 50.0166 48.248C49.526 48.6747 49.2806 49.2933 49.2806 50.104C49.2806 50.8507 49.494 51.512 49.9206 52.088C50.3473 52.6427 50.9766 53.016 51.8086 53.208L54.0166 53.72C55.5953 54.0827 56.7366 54.6587 57.4406 55.448C58.1446 56.216 58.4966 57.176 58.4966 58.328C58.4966 59.7573 57.9633 60.952 56.8966 61.912C55.8513 62.8507 54.2833 63.32 52.1926 63.32C51.4673 63.32 50.6673 63.2133 49.7926 63C48.9393 62.7653 48.15 62.3493 47.4246 61.752C46.7206 61.1547 46.2086 60.3013 45.8886 59.192L47.9686 58.36C48.118 59.768 48.598 60.76 49.4086 61.336C50.2406 61.912 51.1686 62.2 52.1926 62.2C53.1526 62.2 53.9313 61.9867 54.5286 61.56C55.1473 61.112 55.4566 60.472 55.4566 59.64C55.4566 59.064 55.254 58.5413 54.8486 58.072C54.4646 57.5813 53.7393 57.208 52.6726 56.952ZM72.1436 59.672C71.8663 60.9733 71.333 61.912 70.5436 62.488C69.7756 63.0427 68.837 63.32 67.7276 63.32C66.597 63.32 65.669 63.0747 64.9436 62.584C64.2183 62.072 63.685 61.4 63.3436 60.568C63.0023 59.736 62.8316 58.8507 62.8316 57.912V49.464C62.8316 48.7387 62.7996 48.312 62.7356 48.184C62.6716 48.0347 62.469 47.9387 62.1276 47.896L60.3676 47.672V46.776H62.8316V43.064L66.5116 42.328V46.776H71.6316V47.896H66.5116V58.552C66.5116 59.9173 66.6823 60.8667 67.0236 61.4C67.365 61.912 67.8023 62.168 68.3356 62.168C68.8903 62.168 69.317 61.9547 69.6156 61.528C69.9356 61.1013 70.1383 60.3227 70.2236 59.192L72.1436 59.672ZM81.1729 42.136V41.24H89.9409V42.136L88.1809 42.36C87.8395 42.4027 87.6369 42.4987 87.5729 42.648C87.5089 42.776 87.4769 43.2027 87.4769 43.928V60.312C87.4769 61.0373 87.5089 61.4747 87.5729 61.624C87.6369 61.752 87.8395 61.8373 88.1809 61.88L89.9409 62.104V63H81.1729V62.104L82.9329 61.88C83.2742 61.8373 83.4769 61.752 83.5409 61.624C83.6049 61.4747 83.6369 61.0373 83.6369 60.312V43.928C83.6369 43.2027 83.6049 42.776 83.5409 42.648C83.4769 42.4987 83.2742 42.4027 82.9329 42.36L81.1729 42.136ZM110.912 62.104V63H102.304V62.104L104.064 61.88C104.405 61.8373 104.608 61.752 104.672 61.624C104.736 61.4747 104.768 61.0373 104.768 60.312V52.248C104.768 50.776 104.544 49.7093 104.096 49.048C103.669 48.3653 103.029 48.024 102.176 48.024C101.813 48.024 101.387 48.12 100.896 48.312C100.427 48.4827 99.9468 48.8027 99.4561 49.272C98.9868 49.7413 98.5708 50.4347 98.2081 51.352V60.312C98.2081 61.0373 98.2401 61.4747 98.3041 61.624C98.3681 61.752 98.5708 61.8373 98.9121 61.88L100.672 62.104V63H92.0641V62.104L93.8241 61.88C94.1655 61.8373 94.3681 61.752 94.4321 61.624C94.4961 61.4747 94.5281 61.0373 94.5281 60.312V49.464C94.5281 48.7387 94.4961 48.312 94.4321 48.184C94.3681 48.0347 94.1655 47.9387 93.8241 47.896L92.0641 47.672V46.776H98.0161V49.592C98.6348 48.504 99.4241 47.7147 100.384 47.224C101.365 46.712 102.347 46.456 103.328 46.456C104.907 46.456 106.155 46.9573 107.072 47.96C107.989 48.9627 108.448 50.3813 108.448 52.216V60.312C108.448 61.0373 108.48 61.4747 108.544 61.624C108.608 61.752 108.811 61.8373 109.152 61.88L110.912 62.104ZM130.946 62.104V63H122.338V62.104L124.098 61.88C124.439 61.8373 124.642 61.752 124.706 61.624C124.77 61.4747 124.802 61.0373 124.802 60.312V44.12C124.802 42.5627 124.514 41.5067 123.938 40.952C123.362 40.3973 122.572 40.12 121.57 40.12C120.908 40.12 120.322 40.2587 119.81 40.536C119.298 40.792 118.892 41.272 118.594 41.976C118.295 42.68 118.146 43.704 118.146 45.048V46.776H122.946V47.896H118.146V60.312C118.146 61.0373 118.178 61.4747 118.242 61.624C118.306 61.752 118.508 61.8373 118.85 61.88L120.61 62.104V63H112.002V62.104L113.762 61.88C114.103 61.8373 114.306 61.752 114.37 61.624C114.434 61.4747 114.466 61.0373 114.466 60.312V49.464C114.466 48.7387 114.434 48.312 114.37 48.184C114.306 48.0347 114.103 47.9387 113.762 47.896L112.002 47.672V46.776H114.466V45.688C114.466 44.5573 114.69 43.48 115.138 42.456C115.607 41.432 116.364 40.6 117.41 39.96C118.455 39.32 119.842 39 121.57 39C122.466 39 123.276 39.1173 124.002 39.352C124.727 39.5653 125.356 39.8747 125.89 40.28C126.53 39.9813 127.106 39.6613 127.618 39.32H128.482V60.312C128.482 61.0373 128.514 61.4747 128.578 61.624C128.642 61.752 128.844 61.8373 129.186 61.88L130.946 62.104ZM150.333 62.104V63H144.381V60.184C143.784 61.272 143.016 62.072 142.077 62.584C141.138 63.0747 140.189 63.32 139.229 63.32C137.714 63.32 136.509 62.8187 135.613 61.816C134.717 60.792 134.269 59.3733 134.269 57.56V49.464C134.269 48.7387 134.237 48.312 134.173 48.184C134.109 48.0347 133.906 47.9387 133.565 47.896L131.805 47.672V46.776H137.949V57.528C137.949 59 138.152 60.0773 138.557 60.76C138.984 61.4213 139.592 61.752 140.381 61.752C140.722 61.752 141.117 61.6667 141.565 61.496C142.034 61.304 142.504 60.9733 142.973 60.504C143.442 60.0133 143.848 59.32 144.189 58.424V49.464C144.189 48.7387 144.157 48.3013 144.093 48.152C144.029 48.0027 143.826 47.9173 143.485 47.896L141.085 47.672V46.776H147.869V60.312C147.869 61.0373 147.901 61.4747 147.965 61.624C148.029 61.752 148.232 61.8373 148.573 61.88L150.333 62.104ZM166.027 59.192C165.643 60.6853 164.929 61.752 163.883 62.392C162.838 63.0107 161.622 63.32 160.235 63.32C157.675 63.32 155.755 62.584 154.475 61.112C153.195 59.6187 152.555 57.6453 152.555 55.192V54.552C152.555 52.0987 153.153 50.136 154.347 48.664C155.563 47.192 157.313 46.456 159.595 46.456C160.875 46.456 162.006 46.712 162.987 47.224C163.99 47.7147 164.769 48.4293 165.323 49.368C165.899 50.3067 166.187 51.448 166.187 52.792C166.187 53.112 166.166 53.4533 166.123 53.816C166.102 54.1787 166.049 54.5413 165.963 54.904H156.491V55.832C156.491 58.0933 156.811 59.7253 157.451 60.728C158.091 61.7093 159.126 62.2 160.555 62.2C161.473 62.2 162.251 61.9333 162.891 61.4C163.531 60.8453 163.894 59.9173 163.979 58.616L166.027 59.192ZM159.595 47.576C158.55 47.576 157.771 48.056 157.259 49.016C156.747 49.976 156.491 51.5653 156.491 53.784H162.283C162.369 53.3573 162.422 52.9627 162.443 52.6C162.486 52.216 162.507 51.864 162.507 51.544C162.507 50.1787 162.241 49.176 161.707 48.536C161.174 47.896 160.47 47.576 159.595 47.576ZM187.381 62.104V63H178.773V62.104L180.533 61.88C180.874 61.8373 181.077 61.752 181.141 61.624C181.205 61.4747 181.237 61.0373 181.237 60.312V52.248C181.237 50.776 181.013 49.7093 180.565 49.048C180.138 48.3653 179.498 48.024 178.645 48.024C178.282 48.024 177.856 48.12 177.365 48.312C176.896 48.4827 176.416 48.8027 175.925 49.272C175.456 49.7413 175.04 50.4347 174.677 51.352V60.312C174.677 61.0373 174.709 61.4747 174.773 61.624C174.837 61.752 175.04 61.8373 175.381 61.88L177.141 62.104V63H168.533V62.104L170.293 61.88C170.634 61.8373 170.837 61.752 170.901 61.624C170.965 61.4747 170.997 61.0373 170.997 60.312V49.464C170.997 48.7387 170.965 48.312 170.901 48.184C170.837 48.0347 170.634 47.9387 170.293 47.896L168.533 47.672V46.776H174.485V49.592C175.104 48.504 175.893 47.7147 176.853 47.224C177.834 46.712 178.816 46.456 179.797 46.456C181.376 46.456 182.624 46.9573 183.541 47.96C184.458 48.9627 184.917 50.3813 184.917 52.216V60.312C184.917 61.0373 184.949 61.4747 185.013 61.624C185.077 61.752 185.28 61.8373 185.621 61.88L187.381 62.104ZM199.862 59.672C199.585 60.9733 199.052 61.912 198.262 62.488C197.494 63.0427 196.556 63.32 195.446 63.32C194.316 63.32 193.388 63.0747 192.662 62.584C191.937 62.072 191.404 61.4 191.062 60.568C190.721 59.736 190.55 58.8507 190.55 57.912V49.464C190.55 48.7387 190.518 48.312 190.454 48.184C190.39 48.0347 190.188 47.9387 189.846 47.896L188.086 47.672V46.776H190.55V43.064L194.23 42.328V46.776H199.35V47.896H194.23V58.552C194.23 59.9173 194.401 60.8667 194.742 61.4C195.084 61.912 195.521 62.168 196.054 62.168C196.609 62.168 197.036 61.9547 197.334 61.528C197.654 61.1013 197.857 60.3227 197.942 59.192L199.862 59.672ZM205.383 44.024C204.722 44.024 204.189 43.8213 203.783 43.416C203.378 42.9893 203.175 42.4453 203.175 41.784C203.175 41.1227 203.378 40.5893 203.783 40.184C204.189 39.7787 204.722 39.576 205.383 39.576C206.023 39.576 206.557 39.7787 206.983 40.184C207.41 40.5893 207.623 41.1227 207.623 41.784C207.623 42.4453 207.41 42.9893 206.983 43.416C206.557 43.8213 206.023 44.024 205.383 44.024ZM201.095 47.672V46.776H207.239V60.312C207.239 61.0373 207.271 61.4747 207.335 61.624C207.399 61.752 207.602 61.8373 207.943 61.88L209.703 62.104V63H201.095V62.104L202.855 61.88C203.197 61.8373 203.399 61.752 203.463 61.624C203.527 61.4747 203.559 61.0373 203.559 60.312V49.464C203.559 48.7387 203.527 48.312 203.463 48.184C203.399 48.0347 203.197 47.9387 202.855 47.896L201.095 47.672ZM227.259 62.2C226.918 62.52 226.502 62.7867 226.011 63C225.542 63.2133 224.966 63.32 224.283 63.32C223.408 63.32 222.672 63.128 222.075 62.744C221.499 62.36 221.115 61.816 220.923 61.112C220.219 61.88 219.44 62.4453 218.587 62.808C217.755 63.1493 216.902 63.32 216.027 63.32C214.555 63.32 213.456 62.9147 212.731 62.104C212.006 61.272 211.643 60.2373 211.643 59C211.643 57.7413 212.102 56.728 213.019 55.96C213.936 55.1707 215.558 54.776 217.883 54.776H220.795V52.184C220.795 50.4133 220.56 49.208 220.091 48.568C219.643 47.9067 219.014 47.576 218.203 47.576C217.67 47.576 217.179 47.7147 216.731 47.992C216.283 48.248 215.963 48.7387 215.771 49.464C215.6 50.168 215.632 51.192 215.867 52.536L212.347 52.024C212.176 51.0427 212.283 50.136 212.667 49.304C213.072 48.4507 213.744 47.768 214.683 47.256C215.622 46.7227 216.816 46.456 218.267 46.456C219.91 46.456 221.179 46.7227 222.075 47.256C222.971 47.7893 223.59 48.4933 223.931 49.368C224.294 50.2427 224.475 51.1813 224.475 52.184V59.576C224.475 60.664 224.571 61.3467 224.763 61.624C224.955 61.9013 225.168 62.04 225.403 62.04C225.787 62.04 226.214 61.816 226.683 61.368L227.259 62.2ZM217.435 61.624C217.99 61.624 218.534 61.4853 219.067 61.208C219.622 60.9093 220.198 60.3653 220.795 59.576V55.896H218.395C217.35 55.896 216.592 56.1413 216.123 56.632C215.654 57.1227 215.419 57.8907 215.419 58.936C215.419 59.7893 215.59 60.4507 215.931 60.92C216.272 61.3893 216.774 61.624 217.435 61.624ZM227.934 40.216V39.32H234.078V60.312C234.078 61.0373 234.11 61.4747 234.174 61.624C234.238 61.752 234.441 61.8373 234.782 61.88L236.542 62.104V63H227.934V62.104L229.694 61.88C230.035 61.8373 230.238 61.752 230.302 61.624C230.366 61.4747 230.398 61.0373 230.398 60.312V42.008C230.398 41.2827 230.366 40.856 230.302 40.728C230.238 40.5787 230.035 40.4827 229.694 40.44L227.934 40.216ZM259.883 57.496H260.779V63H245.579V62.104L247.339 61.88C247.68 61.8373 247.883 61.752 247.947 61.624C248.011 61.4747 248.043 61.0373 248.043 60.312V43.928C248.043 43.2027 248.011 42.776 247.947 42.648C247.883 42.4987 247.68 42.4027 247.339 42.36L245.579 42.136V41.24H254.347V42.136L252.587 42.36C252.246 42.4027 252.043 42.4987 251.979 42.648C251.915 42.776 251.883 43.2027 251.883 43.928V61.88H257.131C257.643 61.88 258.006 61.8693 258.219 61.848C258.432 61.8053 258.571 61.7307 258.635 61.624C258.72 61.496 258.795 61.304 258.859 61.048L259.883 57.496ZM276.402 59.192C276.018 60.6853 275.304 61.752 274.258 62.392C273.213 63.0107 271.997 63.32 270.61 63.32C268.05 63.32 266.13 62.584 264.85 61.112C263.57 59.6187 262.93 57.6453 262.93 55.192V54.552C262.93 52.0987 263.528 50.136 264.722 48.664C265.938 47.192 267.688 46.456 269.97 46.456C271.25 46.456 272.381 46.712 273.362 47.224C274.365 47.7147 275.144 48.4293 275.698 49.368C276.274 50.3067 276.562 51.448 276.562 52.792C276.562 53.112 276.541 53.4533 276.498 53.816C276.477 54.1787 276.424 54.5413 276.338 54.904H266.866V55.832C266.866 58.0933 267.186 59.7253 267.826 60.728C268.466 61.7093 269.501 62.2 270.93 62.2C271.848 62.2 272.626 61.9333 273.266 61.4C273.906 60.8453 274.269 59.9173 274.354 58.616L276.402 59.192ZM269.97 47.576C268.925 47.576 268.146 48.056 267.634 49.016C267.122 49.976 266.866 51.5653 266.866 53.784H272.658C272.744 53.3573 272.797 52.9627 272.818 52.6C272.861 52.216 272.882 51.864 272.882 51.544C272.882 50.1787 272.616 49.176 272.082 48.536C271.549 47.896 270.845 47.576 269.97 47.576ZM295.228 62.2C294.887 62.52 294.471 62.7867 293.98 63C293.511 63.2133 292.935 63.32 292.252 63.32C291.377 63.32 290.641 63.128 290.044 62.744C289.468 62.36 289.084 61.816 288.892 61.112C288.188 61.88 287.409 62.4453 286.556 62.808C285.724 63.1493 284.871 63.32 283.996 63.32C282.524 63.32 281.425 62.9147 280.7 62.104C279.975 61.272 279.612 60.2373 279.612 59C279.612 57.7413 280.071 56.728 280.988 55.96C281.905 55.1707 283.527 54.776 285.852 54.776H288.764V52.184C288.764 50.4133 288.529 49.208 288.06 48.568C287.612 47.9067 286.983 47.576 286.172 47.576C285.639 47.576 285.148 47.7147 284.7 47.992C284.252 48.248 283.932 48.7387 283.74 49.464C283.569 50.168 283.601 51.192 283.836 52.536L280.316 52.024C280.145 51.0427 280.252 50.136 280.636 49.304C281.041 48.4507 281.713 47.768 282.652 47.256C283.591 46.7227 284.785 46.456 286.236 46.456C287.879 46.456 289.148 46.7227 290.044 47.256C290.94 47.7893 291.559 48.4933 291.9 49.368C292.263 50.2427 292.444 51.1813 292.444 52.184V59.576C292.444 60.664 292.54 61.3467 292.732 61.624C292.924 61.9013 293.137 62.04 293.372 62.04C293.756 62.04 294.183 61.816 294.652 61.368L295.228 62.2ZM285.404 61.624C285.959 61.624 286.503 61.4853 287.036 61.208C287.591 60.9093 288.167 60.3653 288.764 59.576V55.896H286.364C285.319 55.896 284.561 56.1413 284.092 56.632C283.623 57.1227 283.388 57.8907 283.388 58.936C283.388 59.7893 283.559 60.4507 283.9 60.92C284.241 61.3893 284.743 61.624 285.404 61.624ZM313.599 62.104V63H307.647V60.344C307.049 61.3253 306.377 62.072 305.631 62.584C304.905 63.0747 304.041 63.32 303.039 63.32C301.247 63.32 299.817 62.616 298.751 61.208C297.705 59.7787 297.183 57.784 297.183 55.224V54.584C297.183 52.1093 297.791 50.136 299.007 48.664C300.244 47.192 301.929 46.456 304.063 46.456C305.343 46.456 306.473 46.776 307.455 47.416V42.008C307.455 41.2827 307.423 40.856 307.359 40.728C307.295 40.5787 307.092 40.4827 306.751 40.44L304.991 40.216V39.32H311.135V60.312C311.135 61.0373 311.167 61.4747 311.231 61.624C311.295 61.752 311.497 61.8373 311.839 61.88L313.599 62.104ZM301.119 56.184C301.119 58.168 301.364 59.6187 301.855 60.536C302.345 61.4533 303.017 61.912 303.871 61.912C304.404 61.912 304.959 61.6987 305.535 61.272C306.132 60.824 306.772 59.928 307.455 58.584V48.92C306.644 48.1093 305.652 47.704 304.479 47.704C303.305 47.704 302.452 48.2373 301.919 49.304C301.385 50.3493 301.119 51.7893 301.119 53.624V56.184ZM329.277 59.192C328.893 60.6853 328.179 61.752 327.133 62.392C326.088 63.0107 324.872 63.32 323.485 63.32C320.925 63.32 319.005 62.584 317.725 61.112C316.445 59.6187 315.805 57.6453 315.805 55.192V54.552C315.805 52.0987 316.403 50.136 317.597 48.664C318.813 47.192 320.563 46.456 322.845 46.456C324.125 46.456 325.256 46.712 326.237 47.224C327.24 47.7147 328.019 48.4293 328.573 49.368C329.149 50.3067 329.437 51.448 329.437 52.792C329.437 53.112 329.416 53.4533 329.373 53.816C329.352 54.1787 329.299 54.5413 329.213 54.904H319.741V55.832C319.741 58.0933 320.061 59.7253 320.701 60.728C321.341 61.7093 322.376 62.2 323.805 62.2C324.723 62.2 325.501 61.9333 326.141 61.4C326.781 60.8453 327.144 59.9173 327.229 58.616L329.277 59.192ZM322.845 47.576C321.8 47.576 321.021 48.056 320.509 49.016C319.997 49.976 319.741 51.5653 319.741 53.784H325.533C325.619 53.3573 325.672 52.9627 325.693 52.6C325.736 52.216 325.757 51.864 325.757 51.544C325.757 50.1787 325.491 49.176 324.957 48.536C324.424 47.896 323.72 47.576 322.845 47.576ZM331.783 47.672V46.776H337.735V49.4C339.036 47.4373 340.583 46.456 342.375 46.456C343.036 46.456 343.676 46.6693 344.295 47.096C344.914 47.5013 345.426 48.2693 345.831 49.4L342.983 50.936C342.684 50.0613 342.332 49.4747 341.927 49.176C341.543 48.856 341.127 48.696 340.679 48.696C340.21 48.696 339.751 48.8453 339.303 49.144C338.855 49.4427 338.396 49.9973 337.927 50.808V60.312C337.927 61.0373 337.959 61.4747 338.023 61.624C338.087 61.752 338.29 61.8373 338.631 61.88L341.031 62.104V63H331.783V62.104L333.543 61.88C333.884 61.8373 334.087 61.752 334.151 61.624C334.215 61.4747 334.247 61.0373 334.247 60.312V49.464C334.247 48.7387 334.215 48.312 334.151 48.184C334.087 48.0347 333.884 47.9387 333.543 47.896L331.783 47.672ZM353.86 56.952L351.652 56.44C350.223 56.0987 349.156 55.4907 348.452 54.616C347.769 53.72 347.428 52.664 347.428 51.448C347.428 50.552 347.62 49.7307 348.004 48.984C348.409 48.216 349.039 47.608 349.892 47.16C350.745 46.6907 351.855 46.456 353.22 46.456C354.692 46.456 355.887 46.6907 356.804 47.16C357.721 47.6293 358.372 48.248 358.756 49.016C359.14 49.784 359.257 50.6053 359.108 51.48L355.588 52.12C355.887 50.6693 355.801 49.5493 355.332 48.76C354.884 47.9707 354.127 47.576 353.06 47.576C352.313 47.576 351.695 47.8 351.204 48.248C350.713 48.6747 350.468 49.2933 350.468 50.104C350.468 50.8507 350.681 51.512 351.108 52.088C351.535 52.6427 352.164 53.016 352.996 53.208L355.204 53.72C356.783 54.0827 357.924 54.6587 358.628 55.448C359.332 56.216 359.684 57.176 359.684 58.328C359.684 59.7573 359.151 60.952 358.084 61.912C357.039 62.8507 355.471 63.32 353.38 63.32C352.655 63.32 351.855 63.2133 350.98 63C350.127 62.7653 349.337 62.3493 348.612 61.752C347.908 61.1547 347.396 60.3013 347.076 59.192L349.156 58.36C349.305 59.768 349.785 60.76 350.596 61.336C351.428 61.912 352.356 62.2 353.38 62.2C354.34 62.2 355.119 61.9867 355.716 61.56C356.335 61.112 356.644 60.472 356.644 59.64C356.644 59.064 356.441 58.5413 356.036 58.072C355.652 57.5813 354.927 57.208 353.86 56.952ZM56.274 82.024C55.6127 82.024 55.0793 81.8213 54.674 81.416C54.2687 80.9893 54.066 80.4453 54.066 79.784C54.066 79.1227 54.2687 78.5893 54.674 78.184C55.0793 77.7787 55.6127 77.576 56.274 77.576C56.914 77.576 57.4473 77.7787 57.874 78.184C58.3007 78.5893 58.514 79.1227 58.514 79.784C58.514 80.4453 58.3007 80.9893 57.874 81.416C57.4473 81.8213 56.914 82.024 56.274 82.024ZM51.986 85.672V84.776H58.13V98.312C58.13 99.0373 58.162 99.4747 58.226 99.624C58.29 99.752 58.4927 99.8373 58.834 99.88L60.594 100.104V101H51.986V100.104L53.746 99.88C54.0873 99.8373 54.29 99.752 54.354 99.624C54.418 99.4747 54.45 99.0373 54.45 98.312V87.464C54.45 86.7387 54.418 86.312 54.354 86.184C54.29 86.0347 54.0873 85.9387 53.746 85.896L51.986 85.672ZM80.6778 100.104V101H72.0698V100.104L73.8298 99.88C74.1711 99.8373 74.3738 99.752 74.4378 99.624C74.5018 99.4747 74.5338 99.0373 74.5338 98.312V90.248C74.5338 88.776 74.3098 87.7093 73.8618 87.048C73.4351 86.3653 72.7951 86.024 71.9418 86.024C71.5791 86.024 71.1524 86.12 70.6618 86.312C70.1924 86.4827 69.7124 86.8027 69.2218 87.272C68.7524 87.7413 68.3364 88.4347 67.9738 89.352V98.312C67.9738 99.0373 68.0058 99.4747 68.0698 99.624C68.1338 99.752 68.3364 99.8373 68.6778 99.88L70.4378 100.104V101H61.8298V100.104L63.5898 99.88C63.9311 99.8373 64.1338 99.752 64.1978 99.624C64.2618 99.4747 64.2938 99.0373 64.2938 98.312V87.464C64.2938 86.7387 64.2618 86.312 64.1978 86.184C64.1338 86.0347 63.9311 85.9387 63.5898 85.896L61.8298 85.672V84.776H67.7818V87.592C68.4004 86.504 69.1898 85.7147 70.1498 85.224C71.1311 84.712 72.1124 84.456 73.0938 84.456C74.6724 84.456 75.9204 84.9573 76.8378 85.96C77.7551 86.9627 78.2138 88.3813 78.2138 90.216V98.312C78.2138 99.0373 78.2458 99.4747 78.3098 99.624C78.3738 99.752 78.5764 99.8373 78.9178 99.88L80.6778 100.104ZM101.596 86.216H102.492V94.184H101.596L100.892 91.592C100.828 91.336 100.753 91.1547 100.668 91.048C100.604 90.92 100.465 90.8453 100.252 90.824C100.038 90.7813 99.6755 90.76 99.1635 90.76H95.8675V98.312C95.8675 99.0373 95.8995 99.4747 95.9635 99.624C96.0275 99.752 96.2302 99.8373 96.5715 99.88L98.9715 100.104V101H89.5635V100.104L91.3235 99.88C91.6648 99.8373 91.8675 99.752 91.9315 99.624C91.9955 99.4747 92.0275 99.0373 92.0275 98.312V81.928C92.0275 81.2027 91.9955 80.776 91.9315 80.648C91.8675 80.4987 91.6648 80.4027 91.3235 80.36L89.5635 80.136V79.24H104.732V84.744H103.836L102.812 81.192C102.748 80.936 102.673 80.7547 102.588 80.648C102.524 80.52 102.385 80.4453 102.172 80.424C101.958 80.3813 101.596 80.36 101.084 80.36H95.8675V89.64H99.1635C99.6755 89.64 100.038 89.6293 100.252 89.608C100.465 89.5653 100.604 89.4907 100.668 89.384C100.753 89.256 100.828 89.064 100.892 88.808L101.596 86.216ZM110.93 82.024C110.269 82.024 109.736 81.8213 109.33 81.416C108.925 80.9893 108.722 80.4453 108.722 79.784C108.722 79.1227 108.925 78.5893 109.33 78.184C109.736 77.7787 110.269 77.576 110.93 77.576C111.57 77.576 112.104 77.7787 112.53 78.184C112.957 78.5893 113.17 79.1227 113.17 79.784C113.17 80.4453 112.957 80.9893 112.53 81.416C112.104 81.8213 111.57 82.024 110.93 82.024ZM106.642 85.672V84.776H112.786V98.312C112.786 99.0373 112.818 99.4747 112.882 99.624C112.946 99.752 113.149 99.8373 113.49 99.88L115.25 100.104V101H106.642V100.104L108.402 99.88C108.744 99.8373 108.946 99.752 109.01 99.624C109.074 99.4747 109.106 99.0373 109.106 98.312V87.464C109.106 86.7387 109.074 86.312 109.01 86.184C108.946 86.0347 108.744 85.9387 108.402 85.896L106.642 85.672ZM135.334 100.104V101H126.726V100.104L128.486 99.88C128.827 99.8373 129.03 99.752 129.094 99.624C129.158 99.4747 129.19 99.0373 129.19 98.312V90.248C129.19 88.776 128.966 87.7093 128.518 87.048C128.091 86.3653 127.451 86.024 126.598 86.024C126.235 86.024 125.809 86.12 125.318 86.312C124.849 86.4827 124.369 86.8027 123.878 87.272C123.409 87.7413 122.993 88.4347 122.63 89.352V98.312C122.63 99.0373 122.662 99.4747 122.726 99.624C122.79 99.752 122.993 99.8373 123.334 99.88L125.094 100.104V101H116.486V100.104L118.246 99.88C118.587 99.8373 118.79 99.752 118.854 99.624C118.918 99.4747 118.95 99.0373 118.95 98.312V87.464C118.95 86.7387 118.918 86.312 118.854 86.184C118.79 86.0347 118.587 85.9387 118.246 85.896L116.486 85.672V84.776H122.438V87.592C123.057 86.504 123.846 85.7147 124.806 85.224C125.787 84.712 126.769 84.456 127.75 84.456C129.329 84.456 130.577 84.9573 131.494 85.96C132.411 86.9627 132.87 88.3813 132.87 90.216V98.312C132.87 99.0373 132.902 99.4747 132.966 99.624C133.03 99.752 133.233 99.8373 133.574 99.88L135.334 100.104ZM136.072 79.24H153.672V84.744H152.776L151.752 81.192C151.688 80.9147 151.613 80.7227 151.528 80.616C151.464 80.488 151.325 80.4133 151.112 80.392C150.898 80.3707 150.536 80.36 150.024 80.36H146.792V98.312C146.792 99.0373 146.824 99.4747 146.888 99.624C146.952 99.752 147.154 99.8373 147.496 99.88L149.256 100.104V101H140.488V100.104L142.248 99.88C142.589 99.8373 142.792 99.752 142.856 99.624C142.92 99.4747 142.952 99.0373 142.952 98.312V80.36H139.72C139.229 80.36 138.866 80.3707 138.632 80.392C138.418 80.4133 138.28 80.488 138.216 80.616C138.152 80.7227 138.077 80.9147 137.992 81.192L136.968 84.744H136.072V79.24ZM168.418 97.192C168.034 98.6853 167.319 99.752 166.274 100.392C165.229 101.011 164.013 101.32 162.626 101.32C160.066 101.32 158.146 100.584 156.866 99.112C155.586 97.6187 154.946 95.6453 154.946 93.192V92.552C154.946 90.0987 155.543 88.136 156.738 86.664C157.954 85.192 159.703 84.456 161.986 84.456C163.266 84.456 164.397 84.712 165.378 85.224C166.381 85.7147 167.159 86.4293 167.714 87.368C168.29 88.3067 168.578 89.448 168.578 90.792C168.578 91.112 168.557 91.4533 168.514 91.816C168.493 92.1787 168.439 92.5413 168.354 92.904H158.882V93.832C158.882 96.0933 159.202 97.7253 159.842 98.728C160.482 99.7093 161.517 100.2 162.946 100.2C163.863 100.2 164.642 99.9333 165.282 99.4C165.922 98.8453 166.285 97.9173 166.37 96.616L168.418 97.192ZM161.986 85.576C160.941 85.576 160.162 86.056 159.65 87.016C159.138 87.976 158.882 89.5653 158.882 91.784H164.674C164.759 91.3573 164.813 90.9627 164.834 90.6C164.877 90.216 164.898 89.864 164.898 89.544C164.898 88.1787 164.631 87.176 164.098 86.536C163.565 85.896 162.861 85.576 161.986 85.576ZM178.86 85.576C177.836 85.576 177.068 86.0667 176.556 87.048C176.065 88.008 175.82 89.6293 175.82 91.912V93.832C175.82 96.0933 176.108 97.7253 176.684 98.728C177.26 99.7093 178.198 100.2 179.5 100.2C180.46 100.2 181.238 99.9333 181.836 99.4C182.454 98.8453 182.806 97.9173 182.892 96.616L184.94 97.192C184.556 98.6853 183.852 99.752 182.828 100.392C181.825 101.011 180.641 101.32 179.276 101.32C176.822 101.32 174.977 100.584 173.74 99.112C172.502 97.6187 171.884 95.6453 171.884 93.192V92.552C171.884 90.0987 172.481 88.136 173.676 86.664C174.87 85.192 176.598 84.456 178.86 84.456C180.353 84.456 181.569 84.7547 182.508 85.352C183.468 85.928 184.14 86.696 184.524 87.656C184.929 88.5947 185.036 89.608 184.844 90.696L181.324 91.208C181.558 89.416 181.462 88.0293 181.036 87.048C180.609 86.0667 179.884 85.576 178.86 85.576ZM205.641 100.104V101H197.033V100.104L198.793 99.88C199.135 99.8373 199.337 99.752 199.401 99.624C199.465 99.4747 199.497 99.0373 199.497 98.312V90.248C199.497 88.776 199.273 87.7093 198.825 87.048C198.399 86.3653 197.759 86.024 196.905 86.024C196.543 86.024 196.116 86.12 195.625 86.312C195.156 86.4827 194.676 86.8027 194.185 87.272C193.716 87.7413 193.3 88.4347 192.937 89.352V98.312C192.937 99.0373 192.969 99.4747 193.033 99.624C193.097 99.752 193.3 99.8373 193.641 99.88L195.401 100.104V101H186.793V100.104L188.553 99.88C188.895 99.8373 189.097 99.752 189.161 99.624C189.225 99.4747 189.257 99.0373 189.257 98.312V80.008C189.257 79.2827 189.225 78.856 189.161 78.728C189.097 78.5787 188.895 78.4827 188.553 78.44L186.793 78.216V77.32H192.937V87.272C193.556 86.2907 194.324 85.576 195.241 85.128C196.18 84.68 197.119 84.456 198.057 84.456C199.636 84.456 200.884 84.9573 201.801 85.96C202.719 86.9627 203.177 88.3813 203.177 90.216V98.312C203.177 99.0373 203.209 99.4747 203.273 99.624C203.337 99.752 203.54 99.8373 203.881 99.88L205.641 100.104ZM221.54 100.136C222.522 100.136 223.311 99.8267 223.908 99.208C224.506 98.568 224.836 97.736 224.9 96.712C224.964 95.688 224.698 94.5893 224.1 93.416L226.948 91.56L230.852 98.792C231.172 99.3893 231.407 99.7413 231.556 99.848C231.727 99.9333 231.983 99.9973 232.324 100.04L233.892 100.2V101H228.164L226.052 97.032C225.967 98.2053 225.508 99.2187 224.676 100.072C223.866 100.904 222.65 101.32 221.028 101.32C219.087 101.32 217.508 100.883 216.292 100.008C215.076 99.1333 214.468 97.8747 214.468 96.232C214.468 95.528 214.628 94.824 214.948 94.12C215.268 93.416 215.844 92.6907 216.676 91.944C217.53 91.1973 218.746 90.3973 220.324 89.544C218.767 88.8827 217.583 88.072 216.772 87.112C215.983 86.152 215.588 85.128 215.588 84.04C215.588 83.1653 215.834 82.344 216.324 81.576C216.815 80.7867 217.508 80.1467 218.404 79.656C219.3 79.1653 220.367 78.92 221.604 78.92C222.863 78.92 223.94 79.1547 224.836 79.624C225.754 80.072 226.447 80.68 226.916 81.448C227.407 82.1947 227.652 83.0267 227.652 83.944C227.652 85.2453 227.183 86.344 226.244 87.24C225.306 88.136 224.111 88.9787 222.66 89.768L221.54 90.376C220.346 91.0373 219.503 91.816 219.012 92.712C218.543 93.608 218.308 94.6747 218.308 95.912C218.308 97.3413 218.596 98.408 219.172 99.112C219.77 99.7947 220.559 100.136 221.54 100.136ZM219.428 83.816C219.428 84.6693 219.556 85.544 219.812 86.44C220.068 87.336 220.591 88.1787 221.38 88.968L221.636 88.84C222.447 88.4133 223.012 87.784 223.332 86.952C223.652 86.12 223.812 85.1387 223.812 84.008C223.812 82.6 223.61 81.5867 223.204 80.968C222.82 80.3493 222.298 80.04 221.636 80.04C220.996 80.04 220.463 80.3173 220.036 80.872C219.631 81.4267 219.428 82.408 219.428 83.816ZM241.657 80.136V79.24H251.097C253.828 79.24 255.919 80.04 257.369 81.64C258.841 83.24 259.577 85.7253 259.577 89.096V91.112C259.577 94.4827 258.841 96.9787 257.369 98.6C255.919 100.2 253.828 101 251.097 101H241.657V100.104L243.417 99.88C243.759 99.8373 243.961 99.752 244.025 99.624C244.089 99.4747 244.121 99.0373 244.121 98.312V81.928C244.121 81.2027 244.089 80.776 244.025 80.648C243.961 80.4987 243.759 80.4027 243.417 80.36L241.657 80.136ZM250.937 80.36H247.961V99.88H250.937C252.025 99.88 252.9 99.6987 253.561 99.336C254.223 98.952 254.703 98.248 255.001 97.224C255.321 96.1787 255.481 94.6747 255.481 92.712V87.496C255.481 85.5333 255.321 84.04 255.001 83.016C254.703 81.992 254.223 81.2987 253.561 80.936C252.9 80.552 252.025 80.36 250.937 80.36ZM278.744 100.2C278.402 100.52 277.986 100.787 277.496 101C277.026 101.213 276.45 101.32 275.768 101.32C274.893 101.32 274.157 101.128 273.56 100.744C272.984 100.36 272.6 99.816 272.408 99.112C271.704 99.88 270.925 100.445 270.072 100.808C269.24 101.149 268.386 101.32 267.512 101.32C266.04 101.32 264.941 100.915 264.216 100.104C263.49 99.272 263.128 98.2373 263.128 97C263.128 95.7413 263.586 94.728 264.504 93.96C265.421 93.1707 267.042 92.776 269.368 92.776H272.28V90.184C272.28 88.4133 272.045 87.208 271.576 86.568C271.128 85.9067 270.498 85.576 269.688 85.576C269.154 85.576 268.664 85.7147 268.216 85.992C267.768 86.248 267.448 86.7387 267.256 87.464C267.085 88.168 267.117 89.192 267.352 90.536L263.832 90.024C263.661 89.0427 263.768 88.136 264.152 87.304C264.557 86.4507 265.229 85.768 266.168 85.256C267.106 84.7227 268.301 84.456 269.752 84.456C271.394 84.456 272.664 84.7227 273.56 85.256C274.456 85.7893 275.074 86.4933 275.416 87.368C275.778 88.2427 275.96 89.1813 275.96 90.184V97.576C275.96 98.664 276.056 99.3467 276.248 99.624C276.44 99.9013 276.653 100.04 276.888 100.04C277.272 100.04 277.698 99.816 278.168 99.368L278.744 100.2ZM268.92 99.624C269.474 99.624 270.018 99.4853 270.552 99.208C271.106 98.9093 271.682 98.3653 272.28 97.576V93.896H269.88C268.834 93.896 268.077 94.1413 267.608 94.632C267.138 95.1227 266.904 95.8907 266.904 96.936C266.904 97.7893 267.074 98.4507 267.416 98.92C267.757 99.3893 268.258 99.624 268.92 99.624ZM291.034 97.672C290.757 98.9733 290.224 99.912 289.434 100.488C288.666 101.043 287.728 101.32 286.618 101.32C285.488 101.32 284.56 101.075 283.834 100.584C283.109 100.072 282.576 99.4 282.234 98.568C281.893 97.736 281.722 96.8507 281.722 95.912V87.464C281.722 86.7387 281.69 86.312 281.626 86.184C281.562 86.0347 281.36 85.9387 281.018 85.896L279.258 85.672V84.776H281.722V81.064L285.402 80.328V84.776H290.522V85.896H285.402V96.552C285.402 97.9173 285.573 98.8667 285.914 99.4C286.256 99.912 286.693 100.168 287.226 100.168C287.781 100.168 288.208 99.9547 288.506 99.528C288.826 99.1013 289.029 98.3227 289.114 97.192L291.034 97.672ZM308.587 100.2C308.246 100.52 307.83 100.787 307.339 101C306.87 101.213 306.294 101.32 305.611 101.32C304.737 101.32 304.001 101.128 303.403 100.744C302.827 100.36 302.443 99.816 302.251 99.112C301.547 99.88 300.769 100.445 299.915 100.808C299.083 101.149 298.23 101.32 297.355 101.32C295.883 101.32 294.785 100.915 294.059 100.104C293.334 99.272 292.971 98.2373 292.971 97C292.971 95.7413 293.43 94.728 294.347 93.96C295.265 93.1707 296.886 92.776 299.211 92.776H302.123V90.184C302.123 88.4133 301.889 87.208 301.419 86.568C300.971 85.9067 300.342 85.576 299.531 85.576C298.998 85.576 298.507 85.7147 298.059 85.992C297.611 86.248 297.291 86.7387 297.099 87.464C296.929 88.168 296.961 89.192 297.195 90.536L293.675 90.024C293.505 89.0427 293.611 88.136 293.995 87.304C294.401 86.4507 295.073 85.768 296.011 85.256C296.95 84.7227 298.145 84.456 299.595 84.456C301.238 84.456 302.507 84.7227 303.403 85.256C304.299 85.7893 304.918 86.4933 305.259 87.368C305.622 88.2427 305.803 89.1813 305.803 90.184V97.576C305.803 98.664 305.899 99.3467 306.091 99.624C306.283 99.9013 306.497 100.04 306.731 100.04C307.115 100.04 307.542 99.816 308.011 99.368L308.587 100.2ZM298.763 99.624C299.318 99.624 299.862 99.4853 300.395 99.208C300.95 98.9093 301.526 98.3653 302.123 97.576V93.896H299.723C298.678 93.896 297.921 94.1413 297.451 94.632C296.982 95.1227 296.747 95.8907 296.747 96.936C296.747 97.7893 296.918 98.4507 297.259 98.92C297.601 99.3893 298.102 99.624 298.763 99.624Z" fill="black"/>
</svg>
